<svg xmlns="http://www.w3.org/2000/svg" height="800" width="1200" viewBox="-23.9385 -9.5475 207.467 57.285"><path d="M40.86.87h5.26C49 .87 51 2.15 51 4.59a3.49 3.49 0 01-1.66 3 3.21 3.21 0 012.24 3.22c0 3.12-2.6 4.26-5.43 4.26h-5.29zm5.3 5.53a1.2 1.2 0 001.26-1.32 1.16 1.16 0 00-1.32-1.21h-1.74V6.4zm.3 5.76a1.41 1.41 0 001.54-1.5 1.37 1.37 0 00-1.49-1.46h-2.15v3zM64.52.59A7.23 7.23 0 0172 7.92a7.5 7.5 0 11-15 0A7.23 7.23 0 0164.52.59zm0 11.57a4 4 0 003.86-4.28 3.86 3.86 0 10-7.71 0 4 4 0 003.85 4.32zM84.87.59a7.23 7.23 0 017.47 7.29 7.5 7.5 0 11-15 0A7.23 7.23 0 0184.87.59zm0 11.57a4 4 0 003.85-4.28 3.86 3.86 0 10-7.71 0 4 4 0 003.86 4.32zM98.72.87h3.5v5.51h1.43l3-5.51h3.76l-3.86 6.83 4.08 7.42h-3.92l-3-5.8h-1.43v5.8h-3.5zm17.82 0H120v14.29h-3.5zm10.86 0h3.53l4 6.67a25.59 25.59 0 011.2 2.44S136 8.44 136 7.59V.87h3.5v14.29H136l-4-6.66a25.59 25.59 0 01-1.2-2.44s.16 1.54.16 2.44v6.66h-3.56zm25.96-.28a7.89 7.89 0 015.49 1.9l-1.68 2.62a5.68 5.68 0 00-3.47-1.32c-3 0-4.22 1.91-4.22 4a4.06 4.06 0 004.1 4.34 4.88 4.88 0 002.89-1v-1.1h-2v-3h5.12v8.08h-2.92v-1a5.91 5.91 0 01-3.75 1.24 7 7 0 01-7-7.42 7.24 7.24 0 017.44-7.34z"/><path fill="#00aeef" d="M41.05 24.29h1.28v5.93h7.56v-5.93h1.28v13h-1.28v-6h-7.56v6h-1.28zm23.34-.22A6.59 6.59 0 0171 30.73a6.64 6.64 0 11-13.28 0 6.59 6.59 0 016.67-6.66zm0 12.29a5.43 5.43 0 005.31-5.63 5.31 5.31 0 10-10.61 0 5.41 5.41 0 005.3 5.63zM77.6 24.29h1.29v11.89h6v1.15H77.6zm13.3 0h4.21c3.91 0 6.55 2.39 6.55 6.51 0 4.12-2.66 6.53-6.55 6.53H90.9zM95 36.18c3.21 0 5.34-1.89 5.34-5.38s-2.17-5.36-5.34-5.36h-2.8v10.74zm13.31-11.89h1.28v13h-1.28zm8.75 0h1.24l6.7 9.38c.44.65 1.07 1.77 1.07 1.77s-.11-1.08-.11-1.77v-9.38h1.28v13H126l-6.66-9.39c-.45-.65-1.08-1.76-1.08-1.76s.11 1.08.11 1.76v9.39h-1.28zm23.34-.22a7.07 7.07 0 014.6 1.52l-.69 1a6.4 6.4 0 00-3.89-1.3 5.24 5.24 0 00-5.29 5.53 5.25 5.25 0 005.18 5.58 5.7 5.7 0 004.1-1.91v-2.2h-2.23V31.1h3.45v6.23h-1.19v-1.56a5.82 5.82 0 01-4.22 1.82 6.46 6.46 0 01-6.39-6.75 6.54 6.54 0 016.57-6.77zm11.84 10.83a5.11 5.11 0 003.42 1.43 2.35 2.35 0 002.59-2.27c0-3.28-6.51-2.44-6.51-6.49 0-1.87 1.65-3.5 4.06-3.5a5.05 5.05 0 013.49 1.26l-.63 1.07a4.46 4.46 0 00-2.86-1.11 2.49 2.49 0 00-2.74 2.3c0 3.09 6.51 2.2 6.51 6.49 0 1.94-1.5 3.52-3.95 3.52a5.76 5.76 0 01-4.14-1.67z"/><circle fill="#002e6d" r=".99" cy="14.57" cx=".99"/><circle fill="#002e6d" r=".99" cy="10.04" cx=".99"/><circle r=".99" cy="5.52" cx=".99"/><circle r=".99" cy=".99" cx=".99"/><circle fill="#002e6d" r=".99" cy="14.57" cx="4.51"/><circle fill="#002e6d" r=".99" cy="10.04" cx="4.51"/><circle r=".99" cy="5.52" cx="4.51"/><circle r=".99" cy=".99" cx="4.51"/><circle fill="#002e6d" r=".99" cy="14.57" cx="8.03"/><circle fill="#002e6d" r=".99" cy="10.04" cx="8.03"/><circle r=".99" cy="5.52" cx="8.03"/><circle r=".99" cy=".99" cx="8.03"/><circle fill="#002e6d" r=".99" cy="14.57" cx="11.55"/><circle fill="#002e6d" r=".99" cy="14.57" cx="15.07"/><circle fill="#002e6d" r=".99" cy="10.04" cx="15.07"/><circle r=".99" cy="5.52" cx="15.07"/><circle r=".99" cy=".99" cx="15.07"/><circle fill="#002e6d" r=".99" cy="14.57" cx="18.59"/><circle fill="#002e6d" r=".99" cy="10.04" cx="18.59"/><circle r=".99" cy="5.52" cx="18.59"/><circle r=".99" cy=".99" cx="18.59"/><circle fill="#002e6d" r=".99" cy="14.57" cx="22.11"/><circle fill="#002e6d" r=".99" cy="10.04" cx="22.11"/><circle r=".99" cy="5.52" cx="22.11"/><circle r=".99" cy=".99" cx="22.11"/><circle fill="#002e6d" r=".99" cy="14.57" cx="25.63"/><circle fill="#002e6d" r=".99" cy="10.04" cx="25.63"/><circle r=".99" cy="5.52" cx="25.63"/><circle fill="#002e6d" r=".99" cy="10.04" cx="11.55"/><circle r=".99" cy="5.52" cx="11.55"/><circle r=".99" cy=".99" cx="11.55"/><circle fill="#076ab1" r=".99" cy="19.09" cx=".99"/><circle fill="#076ab1" r=".99" cy="23.62" cx=".99"/><circle fill="#00aeef" r=".99" cy="28.15" cx=".99"/><circle fill="#00aeef" r=".99" cy="32.67" cx=".99"/><circle fill="#00aeef" r=".99" cy="37.2" cx=".99"/><circle fill="#076ab1" r=".99" cy="19.09" cx="4.51"/><circle fill="#076ab1" r=".99" cy="23.62" cx="4.51"/><circle fill="#00aeef" r=".99" cy="28.15" cx="4.51"/><circle fill="#00aeef" r=".99" cy="32.67" cx="4.51"/><circle fill="#00aeef" r=".99" cy="37.2" cx="4.51"/><circle fill="#076ab1" r=".99" cy="19.09" cx="8.03"/><circle fill="#076ab1" r=".99" cy="23.62" cx="8.03"/><circle fill="#00aeef" r=".99" cy="28.15" cx="8.03"/><circle fill="#00aeef" r=".99" cy="32.67" cx="8.03"/><circle fill="#00aeef" r=".99" cy="37.2" cx="8.03"/><circle fill="#076ab1" r=".99" cy="19.09" cx="11.55"/><circle fill="#076ab1" r=".99" cy="23.62" cx="11.55"/><circle fill="#076ab1" r=".99" cy="23.62" cx="15.07"/><circle fill="#00aeef" r=".99" cy="28.15" cx="15.07"/><circle fill="#00aeef" r=".99" cy="32.67" cx="15.07"/><circle fill="#00aeef" r=".99" cy="37.2" cx="15.07"/><circle fill="#076ab1" r=".99" cy="23.62" cx="18.59"/><circle fill="#00aeef" r=".99" cy="28.15" cx="18.59"/><circle fill="#00aeef" r=".99" cy="32.67" cx="18.59"/><circle fill="#00aeef" r=".99" cy="37.2" cx="18.59"/><circle fill="#076ab1" r=".99" cy="23.62" cx="22.11"/><circle fill="#00aeef" r=".99" cy="28.15" cx="22.11"/><circle fill="#00aeef" r=".99" cy="32.67" cx="22.11"/><circle fill="#00aeef" r=".99" cy="37.2" cx="22.11"/><circle fill="#076ab1" r=".99" cy="23.62" cx="25.63"/><circle fill="#00aeef" r=".99" cy="28.15" cx="25.63"/><circle fill="#076ab1" r=".99" cy="19.09" cx="15.07"/><circle fill="#076ab1" r=".99" cy="19.09" cx="18.59"/><circle fill="#076ab1" r=".99" cy="19.09" cx="22.11"/><circle fill="#00aeef" r=".99" cy="32.67" cx="25.63"/><circle fill="#00aeef" r=".99" cy="28.15" cx="11.55"/><circle fill="#00aeef" r=".99" cy="32.67" cx="11.55"/><circle fill="#00aeef" r=".99" cy="37.2" cx="11.55"/></svg>