<svg xmlns="http://www.w3.org/2000/svg" height="800" width="1200" viewBox="-77.9001 -6.1805 675.1342 37.083"><path d="M0 12.129c0 5.732 1.158 12.592 10.004 12.592h21.637V9.366H14.697v6.35h10.41v2.965H11.429c-5.135 0-4.387-4.982-4.387-6.447 0-3.65.68-5.631 4.082-5.631H31.64V.001H11.227C3.166.001 0 4.76 0 12.129zm65.342 6.551H44.676v-2.965h20.666v-5.99H44.676V7.114h20.666V.001H37.787v24.72h27.555zM71.484.001v24.72h6.43V6.499l13.879 18.222h9.391V.001h-6.43v18.218L80.875.001zm64.219 18.679h-20.666v-2.965h20.666v-5.99h-20.666V7.114h20.666V.001h-27.555v24.72h27.555zm36.969-9.877c0-3.43-.068-8.803-8.266-8.803H141.85v24.721h6.635v-7.217h10.307l5.768 7.217h8.572l-6.174-7.934c4.522-.671 5.714-3.884 5.714-7.984zm-10.156 2.651H148.48V6.796h14.137c1.889 0 3.215.562 3.215 2.1 0 1.534-.307 2.558-3.316 2.558zm50.599 13.267h24.799V18.68h-17.912V.001h-6.887zM187.691.001l-13.879 24.721h7.553l2.723-4.863h16.156l2.705 4.863h7.553L196.621.001zm-.193 13.757l4.658-8.316 4.67 8.316zM279.152.001h-20.41v24.721h21.637c8.301 0 10-5.223 10-12.592 0-7.369-3.164-12.129-11.227-12.129zm-.205 18.679h-13.676V6.602h13.982c3.811 0 4.082 2.391 4.082 5.631.001 2.967.069 6.447-4.388 6.447zM326.527.001v24.72h6.432V6.499l13.879 18.222h9.39V.001h-6.431v18.218L335.918.001zm46.569 0l-13.881 24.721h7.553l2.723-4.863h16.158l2.703 4.863h7.553L382.023.001zm-.196 13.757l4.658-8.316 4.67 8.316zM289.361.001l14.188 16.175v8.545h7.043v-8.545L324.777.001h-8.982l-8.639 10.644L298.344.001zm109.094 0v24.72h6.43V5.86l9.388 18.861h5.92l9.391-18.861v18.861h6.426V.001h-10.612l-8.166 17.22-8.164-17.22zm51.934 24.72l-.051-24.72h-6.891v24.72zm4.841-12.592c0 7.369 1.699 12.592 10.004 12.592h19.49v-6.014s-15.105-.027-18.064-.027c-4.455 0-4.387-3.48-4.387-6.447 0-3.242.271-5.631 4.08-5.631h18.371V.001h-18.268c-8.062 0-11.226 4.759-11.226 12.128zm56.809-2.455h-14.902c-1.07 0-2.271-.307-2.271-1.484s1.201-1.484 2.271-1.484c2.961 0 21.381-.025 21.381-.025V.667h-23.016c-5.865 0-7.293 3.02-7.293 7.523s1.428 7.525 7.293 7.525h14.902c1.074 0 2.271.303 2.271 1.484 0 1.178-1.197 1.48-2.271 1.48-2.957 0-21.381.027-21.381.027v6.014h23.016c5.867 0 7.295-3.021 7.295-7.521 0-4.505-1.428-7.525-7.295-7.525z" fill="#231F20" clip-rule="evenodd" fill-rule="evenodd"/></svg>